<svg xmlns="http://www.w3.org/2000/svg" version="1.1" xmlns:xlink="http://www.w3.org/1999/xlink" xmlns:svgjs="http://svgjs.dev/svgjs" width="128" height="128" viewBox="0 0 128 128"><g transform="matrix(0.8046875,0,0,0.8046875,12.59562634195192,12.360446011513154)"><svg viewBox="0 0 94 95" data-background-color="#5f173c" preserveAspectRatio="xMidYMid meet" height="129" width="128" xmlns="http://www.w3.org/2000/svg" xmlns:xlink="http://www.w3.org/1999/xlink"><g id="tight-bounds" transform="matrix(1,0,0,1,-0.08727064216971314,-0.24049999999999727)"><svg viewBox="0 0 94.17454128433944 95.481" height="95.481" width="94.17454128433944"><g><svg viewBox="0 0 94.17454128433944 95.481" height="95.481" width="94.17454128433944"><g><svg viewBox="0 0 94.17454128433944 95.481" height="95.481" width="94.17454128433944"><g id="textblocktransform"><svg viewBox="0 0 94.17454128433944 95.481" height="95.481" width="94.17454128433944" id="textblock"><g><svg viewBox="0 0 94.17454128433944 95.481" height="95.481" width="94.17454128433944"><g><svg viewBox="0 0 94.17454128433944 95.481" height="95.481" width="94.17454128433944"><g><svg xmlns="http://www.w3.org/2000/svg" xmlns:xlink="http://www.w3.org/1999/xlink" version="1.1" x="0" y="0" viewBox="11.096102671952927 9.99925 78.90314732804708 79.99774999999997" enable-background="new 0 0 100 100" xml:space="preserve" height="95.481" width="94.17454128433944" class="icon-icon-0" data-fill-palette-color="accent" id="icon-0"><g fill="#9c46d2" data-fill-palette-color="accent"><path d="M41.123 68.425c-3.833-0.664-7.779-1.348-10.318-2.266-4.209-1.621-1.831-4.028 0-4.59 1.221-0.332 2.52-0.576 3.794-0.703 0.952-0.098 1.646-0.938 1.558-1.885-0.088-0.957-0.928-1.646-1.885-1.563-3.984 0.381-9.258 1.953-11.436 4.541-0.117 0.132-0.195 0.283-0.264 0.43-0.415 0.498-0.64 1.162-0.566 1.855 0.239 2.227 2.002 4.131 5.391 5.83 3.008 1.509 7.803 2.339 12.881 3.213 2.539 0.439 5.137 0.894 7.419 1.431 3.369 1.553-0.176 3.916-2.781 4.893-8.619 2.456-23.213 1.538-28.116-2.642-1.45-1.24-3.633-1.074-4.873 0.386-1.245 1.45-1.069 3.638 0.381 4.878 0.4 0.342 0.85 0.664 1.313 0.967 5.439 4.399 12.881 6.797 21.182 6.797 0.098 0 0.195 0 0.293 0 7.881-0.049 15.413-2.324 19.651-5.928 1.25-1.064 5.049-4.297 4.014-8.066C57.463 71.247 49.894 69.943 41.123 68.425z" fill="#9c46d2" data-fill-palette-color="accent"></path><path d="M88.557 14.942l-3.496-3.496c-1.934-1.929-5.068-1.929-6.992 0L53.596 35.915l10.488 10.488 24.473-24.469C90.48 20.004 90.48 16.874 88.557 14.942z" fill="#9c46d2" data-fill-palette-color="accent"></path><polygon points="46.604,42.904 43.989,56.013 57.092,53.396  " fill="#9c46d2" data-fill-palette-color="accent"></polygon></g></svg></g></svg></g></svg></g></svg></g></svg></g><g></g></svg></g><defs></defs></svg><rect width="94.17454128433944" height="95.481" fill="none" stroke="none" visibility="hidden"></rect></g></svg></g></svg>